<mxfile host="app.diagrams.net" modified="2024-01-30T12:51:07.445Z" agent="Mozilla/5.0 (Windows NT 10.0; Win64; x64) AppleWebKit/537.36 (KHTML, like Gecko) Chrome/121.0.0.0 Safari/537.36 Edg/121.0.0.0" etag="__V0RzQEumubp_Z9o6Wt" version="23.0.2" type="device">
  <diagram name="Stránka-1" id="cyKkYoREIfLzn3kAa7Zu">
    <mxGraphModel dx="1121" dy="547" grid="1" gridSize="10" guides="1" tooltips="1" connect="1" arrows="1" fold="1" page="1" pageScale="1" pageWidth="827" pageHeight="1169" math="0" shadow="0">
      <root>
        <mxCell id="0" />
        <mxCell id="1" parent="0" />
        <mxCell id="E8_fYbZ4vUjxn2OIDg_h-5" value="" style="edgeStyle=orthogonalEdgeStyle;rounded=0;orthogonalLoop=1;jettySize=auto;html=1;" edge="1" parent="1" source="E8_fYbZ4vUjxn2OIDg_h-1" target="E8_fYbZ4vUjxn2OIDg_h-4">
          <mxGeometry relative="1" as="geometry" />
        </mxCell>
        <mxCell id="E8_fYbZ4vUjxn2OIDg_h-1" value="Půlení intervalu" style="ellipse;whiteSpace=wrap;html=1;" vertex="1" parent="1">
          <mxGeometry x="390" y="320" width="120" height="80" as="geometry" />
        </mxCell>
        <mxCell id="E8_fYbZ4vUjxn2OIDg_h-23" value="" style="edgeStyle=orthogonalEdgeStyle;rounded=0;orthogonalLoop=1;jettySize=auto;html=1;" edge="1" parent="1" source="E8_fYbZ4vUjxn2OIDg_h-4" target="E8_fYbZ4vUjxn2OIDg_h-22">
          <mxGeometry relative="1" as="geometry" />
        </mxCell>
        <mxCell id="E8_fYbZ4vUjxn2OIDg_h-4" value="c-setříděná řada čísel&lt;br&gt;h-hledané číslo" style="shape=parallelogram;perimeter=parallelogramPerimeter;whiteSpace=wrap;html=1;fixedSize=1;" vertex="1" parent="1">
          <mxGeometry x="375" y="420" width="150" height="60" as="geometry" />
        </mxCell>
        <mxCell id="E8_fYbZ4vUjxn2OIDg_h-11" value="h&amp;gt;c" style="edgeStyle=orthogonalEdgeStyle;rounded=0;orthogonalLoop=1;jettySize=auto;html=1;" edge="1" parent="1" source="E8_fYbZ4vUjxn2OIDg_h-8" target="E8_fYbZ4vUjxn2OIDg_h-10">
          <mxGeometry relative="1" as="geometry" />
        </mxCell>
        <mxCell id="E8_fYbZ4vUjxn2OIDg_h-15" value="h&amp;lt;c" style="edgeStyle=orthogonalEdgeStyle;rounded=0;orthogonalLoop=1;jettySize=auto;html=1;" edge="1" parent="1" source="E8_fYbZ4vUjxn2OIDg_h-8" target="E8_fYbZ4vUjxn2OIDg_h-14">
          <mxGeometry relative="1" as="geometry" />
        </mxCell>
        <mxCell id="E8_fYbZ4vUjxn2OIDg_h-21" value="h=c" style="edgeStyle=orthogonalEdgeStyle;rounded=0;orthogonalLoop=1;jettySize=auto;html=1;" edge="1" parent="1" source="E8_fYbZ4vUjxn2OIDg_h-8" target="E8_fYbZ4vUjxn2OIDg_h-20">
          <mxGeometry relative="1" as="geometry" />
        </mxCell>
        <mxCell id="E8_fYbZ4vUjxn2OIDg_h-8" value="porovnat h&lt;br&gt;s číslem uprostřed c" style="rhombus;whiteSpace=wrap;html=1;" vertex="1" parent="1">
          <mxGeometry x="390" y="610" width="100" height="100" as="geometry" />
        </mxCell>
        <mxCell id="E8_fYbZ4vUjxn2OIDg_h-13" value="" style="edgeStyle=orthogonalEdgeStyle;rounded=0;orthogonalLoop=1;jettySize=auto;html=1;" edge="1" parent="1" source="E8_fYbZ4vUjxn2OIDg_h-10" target="E8_fYbZ4vUjxn2OIDg_h-12">
          <mxGeometry relative="1" as="geometry" />
        </mxCell>
        <mxCell id="E8_fYbZ4vUjxn2OIDg_h-10" value="Půlení intervalu&lt;br&gt;na polovinu menších čísel" style="shape=process;whiteSpace=wrap;html=1;backgroundOutline=1;" vertex="1" parent="1">
          <mxGeometry x="540" y="630" width="120" height="60" as="geometry" />
        </mxCell>
        <mxCell id="E8_fYbZ4vUjxn2OIDg_h-12" value="konec" style="ellipse;whiteSpace=wrap;html=1;" vertex="1" parent="1">
          <mxGeometry x="680" y="620" width="80" height="80" as="geometry" />
        </mxCell>
        <mxCell id="E8_fYbZ4vUjxn2OIDg_h-17" value="" style="edgeStyle=orthogonalEdgeStyle;rounded=0;orthogonalLoop=1;jettySize=auto;html=1;" edge="1" parent="1" source="E8_fYbZ4vUjxn2OIDg_h-14" target="E8_fYbZ4vUjxn2OIDg_h-16">
          <mxGeometry relative="1" as="geometry" />
        </mxCell>
        <mxCell id="E8_fYbZ4vUjxn2OIDg_h-14" value="Půlení intervalu&lt;br style=&quot;border-color: var(--border-color);&quot;&gt;na polovinu větších čísel" style="shape=process;whiteSpace=wrap;html=1;backgroundOutline=1;" vertex="1" parent="1">
          <mxGeometry x="230" y="630" width="120" height="60" as="geometry" />
        </mxCell>
        <mxCell id="E8_fYbZ4vUjxn2OIDg_h-16" value="konec" style="ellipse;whiteSpace=wrap;html=1;" vertex="1" parent="1">
          <mxGeometry x="130" y="620" width="80" height="80" as="geometry" />
        </mxCell>
        <mxCell id="E8_fYbZ4vUjxn2OIDg_h-20" value="konec&lt;br&gt;vrátit nalezené číslo" style="ellipse;whiteSpace=wrap;html=1;" vertex="1" parent="1">
          <mxGeometry x="400" y="740" width="80" height="80" as="geometry" />
        </mxCell>
        <mxCell id="E8_fYbZ4vUjxn2OIDg_h-25" value="ano" style="edgeStyle=orthogonalEdgeStyle;rounded=0;orthogonalLoop=1;jettySize=auto;html=1;" edge="1" parent="1" source="E8_fYbZ4vUjxn2OIDg_h-22" target="E8_fYbZ4vUjxn2OIDg_h-24">
          <mxGeometry relative="1" as="geometry" />
        </mxCell>
        <mxCell id="E8_fYbZ4vUjxn2OIDg_h-26" value="ne" style="edgeStyle=orthogonalEdgeStyle;rounded=0;orthogonalLoop=1;jettySize=auto;html=1;exitX=0.5;exitY=1;exitDx=0;exitDy=0;entryX=0.5;entryY=0;entryDx=0;entryDy=0;" edge="1" parent="1" source="E8_fYbZ4vUjxn2OIDg_h-22" target="E8_fYbZ4vUjxn2OIDg_h-8">
          <mxGeometry relative="1" as="geometry" />
        </mxCell>
        <mxCell id="E8_fYbZ4vUjxn2OIDg_h-22" value="je c prázdná" style="rhombus;whiteSpace=wrap;html=1;" vertex="1" parent="1">
          <mxGeometry x="410" y="505" width="80" height="80" as="geometry" />
        </mxCell>
        <mxCell id="E8_fYbZ4vUjxn2OIDg_h-24" value="číslo h není v řadě" style="ellipse;whiteSpace=wrap;html=1;" vertex="1" parent="1">
          <mxGeometry x="520" y="505" width="80" height="80" as="geometry" />
        </mxCell>
        <mxCell id="E8_fYbZ4vUjxn2OIDg_h-29" value="" style="edgeStyle=orthogonalEdgeStyle;rounded=0;orthogonalLoop=1;jettySize=auto;html=1;" edge="1" parent="1" source="E8_fYbZ4vUjxn2OIDg_h-27" target="E8_fYbZ4vUjxn2OIDg_h-28">
          <mxGeometry relative="1" as="geometry" />
        </mxCell>
        <mxCell id="E8_fYbZ4vUjxn2OIDg_h-27" value="Nesetříděná posloupnost" style="ellipse;whiteSpace=wrap;html=1;" vertex="1" parent="1">
          <mxGeometry x="990" y="350" width="120" height="80" as="geometry" />
        </mxCell>
        <mxCell id="E8_fYbZ4vUjxn2OIDg_h-33" value="" style="edgeStyle=orthogonalEdgeStyle;rounded=0;orthogonalLoop=1;jettySize=auto;html=1;" edge="1" parent="1" source="E8_fYbZ4vUjxn2OIDg_h-28" target="E8_fYbZ4vUjxn2OIDg_h-32">
          <mxGeometry relative="1" as="geometry" />
        </mxCell>
        <mxCell id="E8_fYbZ4vUjxn2OIDg_h-28" value="c-nesetříděná řada čísel&lt;br&gt;h-hledané číslo" style="shape=parallelogram;perimeter=parallelogramPerimeter;whiteSpace=wrap;html=1;fixedSize=1;" vertex="1" parent="1">
          <mxGeometry x="970" y="460" width="160" height="60" as="geometry" />
        </mxCell>
        <mxCell id="E8_fYbZ4vUjxn2OIDg_h-37" value="" style="edgeStyle=orthogonalEdgeStyle;rounded=0;orthogonalLoop=1;jettySize=auto;html=1;" edge="1" parent="1" source="E8_fYbZ4vUjxn2OIDg_h-32" target="E8_fYbZ4vUjxn2OIDg_h-36">
          <mxGeometry relative="1" as="geometry" />
        </mxCell>
        <mxCell id="E8_fYbZ4vUjxn2OIDg_h-52" value="" style="edgeStyle=orthogonalEdgeStyle;rounded=0;orthogonalLoop=1;jettySize=auto;html=1;" edge="1" parent="1" source="E8_fYbZ4vUjxn2OIDg_h-32" target="E8_fYbZ4vUjxn2OIDg_h-51">
          <mxGeometry relative="1" as="geometry" />
        </mxCell>
        <mxCell id="E8_fYbZ4vUjxn2OIDg_h-32" value="Pro všechny čísla z c" style="strokeWidth=2;html=1;shape=mxgraph.flowchart.loop_limit;whiteSpace=wrap;" vertex="1" parent="1">
          <mxGeometry x="986.5" y="540" width="129" height="60" as="geometry" />
        </mxCell>
        <mxCell id="E8_fYbZ4vUjxn2OIDg_h-39" value="" style="edgeStyle=orthogonalEdgeStyle;rounded=0;orthogonalLoop=1;jettySize=auto;html=1;" edge="1" parent="1" source="E8_fYbZ4vUjxn2OIDg_h-36" target="E8_fYbZ4vUjxn2OIDg_h-32">
          <mxGeometry relative="1" as="geometry">
            <mxPoint x="1125.435775862069" y="689.0344827586207" as="sourcePoint" />
            <mxPoint x="1119.6280000000002" y="584.4199999999998" as="targetPoint" />
            <Array as="points">
              <mxPoint x="1160" y="670" />
              <mxPoint x="1160" y="570" />
            </Array>
          </mxGeometry>
        </mxCell>
        <mxCell id="E8_fYbZ4vUjxn2OIDg_h-40" value="NE" style="edgeLabel;html=1;align=center;verticalAlign=middle;resizable=0;points=[];" vertex="1" connectable="0" parent="E8_fYbZ4vUjxn2OIDg_h-39">
          <mxGeometry x="-0.4474" relative="1" as="geometry">
            <mxPoint as="offset" />
          </mxGeometry>
        </mxCell>
        <mxCell id="E8_fYbZ4vUjxn2OIDg_h-47" value="" style="edgeStyle=orthogonalEdgeStyle;rounded=0;orthogonalLoop=1;jettySize=auto;html=1;" edge="1" parent="1" source="E8_fYbZ4vUjxn2OIDg_h-36" target="E8_fYbZ4vUjxn2OIDg_h-44">
          <mxGeometry relative="1" as="geometry" />
        </mxCell>
        <mxCell id="E8_fYbZ4vUjxn2OIDg_h-48" value="ANO" style="edgeLabel;html=1;align=center;verticalAlign=middle;resizable=0;points=[];" vertex="1" connectable="0" parent="E8_fYbZ4vUjxn2OIDg_h-47">
          <mxGeometry x="-0.0589" relative="1" as="geometry">
            <mxPoint as="offset" />
          </mxGeometry>
        </mxCell>
        <mxCell id="E8_fYbZ4vUjxn2OIDg_h-36" value="Je číslo hledané číslo h" style="rhombus;whiteSpace=wrap;html=1;strokeWidth=2;" vertex="1" parent="1">
          <mxGeometry x="975.5" y="630" width="149" height="80" as="geometry" />
        </mxCell>
        <mxCell id="E8_fYbZ4vUjxn2OIDg_h-44" value="Konec (číslo nalezeno)" style="strokeWidth=2;html=1;shape=mxgraph.flowchart.start_1;whiteSpace=wrap;" vertex="1" parent="1">
          <mxGeometry x="800" y="640" width="130" height="60" as="geometry" />
        </mxCell>
        <mxCell id="E8_fYbZ4vUjxn2OIDg_h-51" value="Číslo v poli c není" style="ellipse;whiteSpace=wrap;html=1;strokeWidth=2;" vertex="1" parent="1">
          <mxGeometry x="880" y="530" width="80" height="80" as="geometry" />
        </mxCell>
      </root>
    </mxGraphModel>
  </diagram>
</mxfile>
